<?xml version="1.0" encoding="UTF-8" standalone="no"?>
<svg
   xmlns:dc="http://purl.org/dc/elements/1.1/"
   xmlns:cc="http://creativecommons.org/ns#"
   xmlns:rdf="http://www.w3.org/1999/02/22-rdf-syntax-ns#"
   xmlns:svg="http://www.w3.org/2000/svg"
   xmlns="http://www.w3.org/2000/svg"
   id="svg2"
   viewBox="0 0 782 278"
   height="278"
   width="782"
   version="1.1">
  <metadata
     id="metadata20">
    <rdf:RDF>
      <cc:Work
         rdf:about="">
        <dc:format>image/svg+xml</dc:format>
        <dc:type
           rdf:resource="http://purl.org/dc/dcmitype/StillImage" />
        <dc:title></dc:title>
      </cc:Work>
    </rdf:RDF>
  </metadata>
  <defs
     id="defs18" />
  <path
     d="m 0,187.2638 c 0,0 782,0 782,0 0,0 0,23.4724 0,23.4724 0,0 -782,0 -782,0 0,0 0,-23.4724 0,-23.4724 z"
     id="path6"
     style="fill:#ffffff;fill-rule:evenodd" />
  <path
     d="m 0,207 c 0,0 782,0 782,0 0,0 0,71 0,71 0,0 -782,0 -782,0 0,0 0,-71 0,-71 z"
     id="path8"
     style="fill:#0a488f;fill-rule:evenodd" />
  <path
     d="m 0,0 c 0,0 782,0 782,0 0,0 0,191 0,191 0,0 -782,0 -782,0 C 0,191 0,0 0,0 Z"
     id="path10"
     style="fill:#009ddb;fill-rule:evenodd" />
  <path
     d="m 741.774,77.185 c -2.393,-10.003 -6.85,-17.67 -13.375,-22.999 -6.524,-5.327 -13.919,-7.992 -22.183,-7.992 -6.905,0 -13.24,1.985 -19.002,5.953 -5.764,3.97 -9.978,9.163 -12.641,15.578 -3.425,8.21 -5.138,17.344 -5.138,27.402 0,9.896 1.25,18.908 3.751,27.036 2.501,8.128 6.415,14.272 11.744,18.431 5.328,4.16 12.234,6.239 20.715,6.239 6.959,0 13.335,-1.521 19.125,-4.567 5.791,-3.044 11.893,-8.291 18.309,-15.74 0,0 0,9.542 0,9.542 -6.198,6.471 -12.655,11.16 -19.369,14.068 -6.716,2.908 -14.558,4.363 -23.529,4.363 -11.799,0 -22.278,-2.365 -31.439,-7.095 -9.163,-4.73 -16.23,-11.526 -21.205,-20.389 -4.975,-8.861 -7.462,-18.295 -7.462,-28.299 0,-10.548 2.759,-20.552 8.278,-30.013 5.518,-9.46 12.967,-16.8 22.346,-22.02 9.379,-5.219 19.341,-7.829 29.89,-7.829 7.775,0 15.985,1.686 24.63,5.056 5.001,1.958 8.182,2.936 9.542,2.936 1.739,0 3.248,-0.638 4.526,-1.916 1.277,-1.277 2.106,-3.303 2.487,-6.076 0,0 3.181,0 3.181,0 0,0 0,38.331 0,38.331 0,0 -3.181,0 -3.181,0 z m -212.19,74.786 c 0,0 0,-3.017 0,-3.017 0,0 3.67,0 3.67,0 3.207,0 5.79,-0.571 7.748,-1.713 1.413,-0.761 2.5,-2.066 3.262,-3.915 0.597,-1.305 0.897,-4.73 0.897,-10.276 0,0 0,-72.747 0,-72.747 0,-5.002 -0.136,-8.074 -0.408,-9.216 -0.544,-1.902 -1.549,-3.37 -3.017,-4.404 -2.067,-1.521 -4.894,-2.283 -8.482,-2.283 0,0 -3.67,0 -3.67,0 0,0 0,-3.018 0,-3.018 0,0 92.565,0 92.565,0 0,0 0,32.704 0,32.704 0,0 -3.099,0 -3.099,0 -1.578,-7.993 -3.792,-13.728 -6.647,-17.208 -2.854,-3.479 -6.891,-6.035 -12.111,-7.667 -3.045,-0.978 -8.754,-1.467 -17.126,-1.467 0,0 -11.418,0 -11.418,0 0,0 0,45.018 0,45.018 0,0 2.202,0 2.202,0 7.014,0 12.097,-2.202 15.251,-6.606 3.152,-4.404 5.165,-10.9 6.035,-19.492 0,0 3.099,0 3.099,0 0,0 0,57.905 0,57.905 0,0 -3.099,0 -3.099,0 -0.653,-6.307 -2.026,-11.472 -4.119,-15.496 -2.093,-4.023 -4.526,-6.728 -7.299,-8.115 -2.773,-1.386 -6.797,-2.079 -12.07,-2.079 0,0 0,31.154 0,31.154 0,6.09 0.257,9.814 0.775,11.173 0.516,1.36 1.48,2.475 2.895,3.344 1.413,0.87 3.697,1.304 6.851,1.304 0,0 6.606,0 6.606,0 10.329,0 18.607,-2.391 24.833,-7.176 6.225,-4.784 10.697,-12.071 13.416,-21.857 0,0 3.018,0 3.018,0 0,0 -4.975,35.15 -4.975,35.15 0,0 -95.583,0 -95.583,0 z m -44.105,2.61 c -3.48,0 -6.769,-0.354 -9.868,-1.06 -3.099,-0.708 -6.987,-2.039 -11.663,-3.997 -2.61,-1.086 -4.758,-1.631 -6.443,-1.631 -1.414,0 -2.909,0.545 -4.485,1.631 -1.578,1.089 -2.855,2.745 -3.833,4.975 0,0 -3.018,0 -3.018,0 0,0 0,-41.756 0,-41.756 0,0 3.018,0 3.018,0 2.392,11.744 6.999,20.702 13.823,26.873 6.823,6.171 14.177,9.256 22.061,9.256 6.089,0 10.941,-1.658 14.558,-4.975 3.615,-3.316 5.423,-7.177 5.423,-11.581 0,-2.609 -0.693,-5.138 -2.08,-7.584 -1.386,-2.447 -3.494,-4.771 -6.32,-6.973 -2.828,-2.202 -7.829,-5.069 -15.006,-8.604 -10.06,-4.947 -17.29,-9.161 -21.694,-12.641 -4.404,-3.479 -7.789,-7.367 -10.154,-11.663 -2.365,-4.294 -3.547,-9.024 -3.547,-14.19 0,-8.808 3.234,-16.312 9.705,-22.51 6.469,-6.198 14.625,-9.297 24.466,-9.297 3.589,0 7.068,0.436 10.439,1.305 2.555,0.652 5.669,1.863 9.339,3.629 3.67,1.768 6.239,2.651 7.707,2.651 1.413,0 2.528,-0.435 3.343,-1.305 0.816,-0.869 1.577,-2.963 2.284,-6.28 0,0 2.446,0 2.446,0 0,0 0.898,36.863 0.898,36.863 0,0 -3.344,0 -3.344,0 -1.578,-9.243 -5.452,-16.678 -11.622,-22.305 -6.171,-5.628 -12.845,-8.441 -20.022,-8.441 -5.545,0 -9.937,1.482 -13.171,4.444 -3.235,2.964 -4.852,6.376 -4.852,10.236 0,2.446 0.571,4.621 1.712,6.524 1.577,2.556 4.105,5.084 7.585,7.585 2.555,1.794 8.454,4.975 17.697,9.542 12.94,6.361 21.666,12.369 26.18,18.023 4.457,5.656 6.687,12.125 6.687,19.41 0,9.244 -3.602,17.196 -10.806,23.855 -7.205,6.661 -16.352,9.991 -27.443,9.991 z m -107.458,-0.082 c -19.9,0 -35.287,-6.741 -46.16,-20.225 -8.592,-10.656 -12.886,-23.297 -12.886,-37.924 0,-16.419 5.586,-30.106 16.759,-41.063 11.174,-10.955 24.916,-16.107 41.227,-15.454 17.616,-0.653 31.929,4.485 42.939,15.414 11.01,10.928 16.514,24.603 16.514,41.022 0,14.027 -4.105,26.37 -12.314,37.026 -10.875,14.137 -26.234,21.204 -46.079,21.204 z m 24.874,-89.588 c -2.719,-7.259 -6.185,-12.382 -10.398,-15.373 -4.214,-2.99 -9.067,-4.486 -14.558,-4.486 -10.113,0 -17.807,5.166 -23.08,15.496 -4.295,8.481 -6.443,20.661 -6.443,36.536 0,18.868 3.316,32.814 9.95,41.838 4.621,6.308 11.092,9.461 19.41,9.461 5.6,0 10.276,-1.359 14.028,-4.078 4.783,-3.479 8.508,-9.039 11.173,-16.678 2.663,-7.638 3.996,-17.602 3.996,-29.89 0,-14.625 -1.36,-25.568 -4.078,-32.826 z m -99.751,-8.36 c -3.127,-3.588 -7.653,-6.116 -13.579,-7.584 -3.262,-0.816 -9.297,-1.223 -18.105,-1.223 0,0 -10.276,0 -10.276,0 0,0 0,45.426 0,45.426 0,0 3.181,0 3.181,0 4.893,0 8.889,-0.734 11.988,-2.202 3.1,-1.468 5.722,-3.942 7.871,-7.422 2.147,-3.479 3.547,-8.182 4.2,-14.109 0,0 2.854,0 2.854,0 0,0 0,55.539 0,55.539 0,0 -2.854,0 -2.854,0 -1.034,-10.492 -3.847,-17.412 -8.441,-20.755 -4.595,-3.344 -9.801,-5.016 -15.618,-5.016 0,0 -3.181,0 -3.181,0 0,0 0,33.845 0,33.845 0,5.656 0.312,9.189 0.938,10.603 0.624,1.414 1.848,2.65 3.67,3.71 1.821,1.06 4.282,1.591 7.381,1.591 0,0 3.67,0 3.67,0 0,0 0,3.017 0,3.017 0,0 -57.823,0 -57.823,0 0,0 0,-3.017 0,-3.017 0,0 3.67,0 3.67,0 3.208,0 5.791,-0.571 7.748,-1.713 1.413,-0.761 2.5,-2.066 3.262,-3.915 0.598,-1.305 0.897,-4.73 0.897,-10.276 0,0 0,-72.747 0,-72.747 0,-5.654 -0.299,-9.188 -0.897,-10.602 -0.599,-1.413 -1.808,-2.651 -3.629,-3.711 -1.822,-1.06 -4.282,-1.59 -7.381,-1.59 0,0 -3.67,0 -3.67,0 0,0 0,-3.018 0,-3.018 0,0 93.299,0 93.299,0 0,0 0,31.725 0,31.725 0,0 -3.343,0 -3.343,0 -0.762,-7.448 -2.706,-12.967 -5.832,-16.556 z M 206.11,46.724 c -1.604,0.952 -2.855,2.502 -3.752,4.649 -0.897,2.148 -1.345,5.831 -1.345,11.05 0,0 0,92.076 0,92.076 0,0 -2.773,0 -2.773,0 0,0 -74.786,-92.076 -74.786,-92.076 0,0 0,70.301 0,70.301 0,6.361 1.454,10.657 4.363,12.886 2.908,2.23 6.239,3.344 9.99,3.344 0,0 2.61,0 2.61,0 0,0 0,3.017 0,3.017 0,0 -39.228,0 -39.228,0 0,0 0,-3.017 0,-3.017 6.089,-0.054 10.33,-1.305 12.723,-3.752 2.392,-2.447 3.588,-6.606 3.588,-12.478 0,0 0,-78.048 0,-78.048 0,0 -2.365,-2.936 -2.365,-2.936 -2.338,-2.936 -4.404,-4.866 -6.198,-5.791 -1.794,-0.924 -4.377,-1.44 -7.748,-1.549 0,0 0,-3.018 0,-3.018 0,0 39.228,0 39.228,0 0,0 54.561,68.588 54.561,68.588 0,0 0,-47.547 0,-47.547 0,-6.632 -0.952,-11.118 -2.855,-13.456 -2.61,-3.153 -6.987,-4.676 -13.13,-4.567 0,0 0,-3.018 0,-3.018 0,0 36.537,0 36.537,0 0,0 0,3.018 0,3.018 -4.677,0.599 -7.817,1.373 -9.42,2.324 z M 41.344,148.954 c 0,0 3.67,0 3.67,0 3.207,0 5.79,-0.571 7.748,-1.713 1.413,-0.761 2.5,-2.066 3.262,-3.915 0.597,-1.305 0.897,-4.73 0.897,-10.276 0,0 0,-72.747 0,-72.747 0,-5.654 -0.3,-9.188 -0.897,-10.602 -0.599,-1.413 -1.809,-2.651 -3.629,-3.711 -1.823,-1.06 -4.282,-1.59 -7.381,-1.59 0,0 -3.67,0 -3.67,0 0,0 0,-3.018 0,-3.018 0,0 57.822,0 57.822,0 0,0 0,3.018 0,3.018 0,0 -3.67,0 -3.67,0 -3.208,0 -5.79,0.571 -7.747,1.712 -1.415,0.762 -2.528,2.067 -3.344,3.915 -0.599,1.305 -0.897,4.73 -0.897,10.276 0,0 0,72.747 0,72.747 0,5.656 0.312,9.189 0.938,10.603 0.624,1.414 1.847,2.65 3.67,3.71 1.821,1.06 4.281,1.591 7.38,1.591 0,0 3.67,0 3.67,0 0,0 0,3.017 0,3.017 0,0 -57.822,0 -57.822,0 0,0 0,-3.017 0,-3.017 z"
     id="path12"
     style="fill:#ffffff;fill-rule:evenodd" />
  <path
     d="m 713.881,261.683 c 0.169,0.412 0.465,0.74 0.888,0.983 0.423,0.244 1.227,0.365 2.412,0.365 0,0 7.299,0 7.299,0 2.432,0 4.199,-0.169 5.299,-0.508 1.1,-0.338 2.158,-1.004 3.174,-1.999 1.311,-1.311 2.655,-3.289 4.03,-5.934 0,0 1.269,0 1.269,0 0,0 -3.712,10.79 -3.712,10.79 0,0 -33.162,0 -33.162,0 0,0 0,-1.175 0,-1.175 0,0 1.523,0 1.523,0 1.015,0 1.978,-0.243 2.888,-0.729 0.676,-0.339 1.137,-0.846 1.38,-1.524 0.243,-0.677 0.365,-2.062 0.365,-4.157 0,0 0,-27.957 0,-27.957 0,-2.729 -0.275,-4.411 -0.825,-5.046 -0.762,-0.846 -2.031,-1.269 -3.808,-1.269 0,0 -1.523,0 -1.523,0 0,0 0,-1.175 0,-1.175 0,0 33.162,0 33.162,0 0,0 0.476,9.425 0.476,9.425 0,0 -1.238,0 -1.238,0 -0.444,-2.263 -0.936,-3.818 -1.476,-4.664 -0.539,-0.846 -1.338,-1.492 -2.396,-1.936 -0.846,-0.318 -2.338,-0.476 -4.474,-0.476 0,0 -11.805,0 -11.805,0 0,0 0,17.009 0,17.009 0,0 9.457,0 9.457,0 2.454,0 4.093,-0.37 4.918,-1.111 1.1,-0.972 1.714,-2.686 1.841,-5.14 0,0 1.174,0 1.174,0 0,0 0,14.978 0,14.978 0,0 -1.174,0 -1.174,0 -0.297,-2.095 -0.593,-3.438 -0.889,-4.03 -0.38,-0.741 -1.005,-1.322 -1.872,-1.746 -0.868,-0.423 -2.2,-0.634 -3.998,-0.634 0,0 -9.457,0 -9.457,0 0,0 0,14.185 0,14.185 0,1.904 0.084,3.062 0.254,3.475 z m -63.106,-33.051 c -0.656,-1.227 -1.529,-2.131 -2.618,-2.713 -1.09,-0.582 -2.523,-0.873 -4.3,-0.873 0,0 -6.061,0 -6.061,0 0,0 0,32.876 0,32.876 0,2.645 0.285,4.295 0.857,4.951 0.803,0.888 2.041,1.332 3.712,1.332 0,0 1.492,0 1.492,0 0,0 0,1.175 0,1.175 0,0 -18.247,0 -18.247,0 0,0 0,-1.175 0,-1.175 0,0 1.523,0 1.523,0 1.819,0 3.11,-0.55 3.872,-1.65 0.465,-0.677 0.698,-2.221 0.698,-4.633 0,0 0,-32.876 0,-32.876 0,0 -5.173,0 -5.173,0 -2.01,0 -3.438,0.148 -4.284,0.444 -1.1,0.402 -2.042,1.174 -2.824,2.317 -0.783,1.142 -1.249,2.687 -1.396,4.633 0,0 -1.206,0 -1.206,0 0,0 0.507,-10.092 0.507,-10.092 0,0 35.13,0 35.13,0 0,0 0.476,10.092 0.476,10.092 0,0 -1.206,0 -1.206,0 -0.233,-1.777 -0.551,-3.047 -0.952,-3.808 z m -87.636,-2.983 c -0.445,0.656 -0.667,2.179 -0.667,4.569 0,0 0,17.454 0,17.454 0,4.316 -0.428,7.664 -1.285,10.044 -0.857,2.38 -2.539,4.422 -5.046,6.124 -2.507,1.703 -5.918,2.555 -10.234,2.555 -4.696,0 -8.262,-0.815 -10.694,-2.443 -2.433,-1.629 -4.157,-3.819 -5.173,-6.569 -0.677,-1.883 -1.015,-5.416 -1.015,-10.599 0,0 0,-16.819 0,-16.819 0,-2.645 -0.365,-4.38 -1.095,-5.205 -0.73,-0.825 -1.91,-1.237 -3.538,-1.237 0,0 -1.619,0 -1.619,0 0,0 0,-1.175 0,-1.175 0,0 18.596,0 18.596,0 0,0 0,1.175 0,1.175 0,0 -1.65,0 -1.65,0 -1.777,0 -3.046,0.56 -3.808,1.681 -0.529,0.762 -0.793,2.349 -0.793,4.761 0,0 0,18.754 0,18.754 0,1.672 0.153,3.586 0.46,5.744 0.306,2.158 0.862,3.84 1.666,5.046 0.804,1.206 1.962,2.2 3.475,2.983 1.512,0.783 3.368,1.174 5.569,1.174 2.813,0 5.331,-0.613 7.553,-1.841 2.221,-1.226 3.739,-2.797 4.553,-4.712 0.815,-1.915 1.222,-5.157 1.222,-9.727 0,0 0,-17.421 0,-17.421 0,-2.687 -0.296,-4.369 -0.888,-5.046 -0.825,-0.931 -2.053,-1.396 -3.681,-1.396 0,0 -1.619,0 -1.619,0 0,0 0,-1.175 0,-1.175 0,0 15.232,0 15.232,0 0,0 0,1.175 0,1.175 0,0 -1.618,0 -1.618,0 -1.693,0 -2.994,0.709 -3.903,2.126 z m -89.985,2.983 c -0.656,-1.227 -1.528,-2.131 -2.618,-2.713 -1.09,-0.582 -2.523,-0.873 -4.3,-0.873 0,0 -6.061,0 -6.061,0 0,0 0,32.876 0,32.876 0,2.645 0.286,4.295 0.857,4.951 0.804,0.888 2.041,1.332 3.713,1.332 0,0 1.491,0 1.491,0 0,0 0,1.175 0,1.175 0,0 -18.247,0 -18.247,0 0,0 0,-1.175 0,-1.175 0,0 1.524,0 1.524,0 1.819,0 3.109,-0.55 3.871,-1.65 0.465,-0.677 0.698,-2.221 0.698,-4.633 0,0 0,-32.876 0,-32.876 0,0 -5.172,0 -5.172,0 -2.011,0 -3.439,0.148 -4.285,0.444 -1.1,0.402 -2.041,1.174 -2.824,2.317 -0.783,1.142 -1.248,2.687 -1.396,4.633 0,0 -1.206,0 -1.206,0 0,0 0.508,-10.092 0.508,-10.092 0,0 35.129,0 35.129,0 0,0 0.476,10.092 0.476,10.092 0,0 -1.206,0 -1.206,0 -0.233,-1.777 -0.55,-3.047 -0.952,-3.808 z m -100.14,35.573 c 0,0 1.523,0 1.523,0 1.777,0 3.067,-0.518 3.871,-1.555 0.508,-0.676 0.762,-2.305 0.762,-4.887 0,0 0,-27.798 0,-27.798 0,-2.179 -0.138,-3.618 -0.413,-4.316 -0.211,-0.529 -0.645,-0.984 -1.301,-1.365 -0.931,-0.508 -1.904,-0.761 -2.919,-0.761 0,0 -1.523,0 -1.523,0 0,0 0,-1.175 0,-1.175 0,0 18.437,0 18.437,0 0,0 0,1.175 0,1.175 0,0 -1.555,0 -1.555,0 -1.756,0 -3.036,0.518 -3.84,1.555 -0.529,0.677 -0.793,2.306 -0.793,4.887 0,0 0,27.798 0,27.798 0,2.18 0.137,3.618 0.412,4.316 0.212,0.529 0.656,0.984 1.333,1.365 0.91,0.508 1.873,0.761 2.888,0.761 0,0 1.555,0 1.555,0 0,0 0,1.175 0,1.175 0,0 -18.437,0 -18.437,0 0,0 0,-1.175 0,-1.175 z m -50.889,-35.573 c -0.656,-1.227 -1.528,-2.131 -2.618,-2.713 -1.09,-0.582 -2.523,-0.873 -4.3,-0.873 0,0 -6.061,0 -6.061,0 0,0 0,32.876 0,32.876 0,2.645 0.286,4.295 0.857,4.951 0.804,0.888 2.041,1.332 3.713,1.332 0,0 1.491,0 1.491,0 0,0 0,1.175 0,1.175 0,0 -18.247,0 -18.247,0 0,0 0,-1.175 0,-1.175 0,0 1.524,0 1.524,0 1.819,0 3.109,-0.55 3.871,-1.65 0.465,-0.677 0.698,-2.221 0.698,-4.633 0,0 0,-32.876 0,-32.876 0,0 -5.172,0 -5.172,0 -2.011,0 -3.439,0.148 -4.284,0.444 -1.101,0.402 -2.042,1.174 -2.825,2.317 -0.783,1.142 -1.248,2.687 -1.396,4.633 0,0 -1.206,0 -1.206,0 0,0 0.508,-10.092 0.508,-10.092 0,0 35.129,0 35.129,0 0,0 0.476,10.092 0.476,10.092 0,0 -1.206,0 -1.206,0 -0.233,-1.777 -0.55,-3.047 -0.952,-3.808 z m -98.457,37.731 c -1.249,0 -2.423,-0.095 -3.523,-0.285 -0.656,-0.106 -2.015,-0.492 -4.077,-1.159 -2.063,-0.666 -3.37,-0.999 -3.92,-0.999 -0.529,0 -0.947,0.158 -1.253,0.476 -0.307,0.317 -0.535,0.973 -0.682,1.967 0,0 -1.174,0 -1.174,0 0,0 0,-14.756 0,-14.756 0,0 1.174,0 1.174,0 0.55,3.089 1.29,5.4 2.221,6.934 0.931,1.534 2.353,2.808 4.268,3.824 1.915,1.015 4.015,1.523 6.299,1.523 2.645,0 4.734,-0.698 6.268,-2.094 1.534,-1.397 2.301,-3.047 2.301,-4.951 0,-1.057 -0.291,-2.126 -0.873,-3.205 -0.582,-1.079 -1.487,-2.084 -2.713,-3.015 -0.825,-0.634 -3.079,-1.983 -6.76,-4.046 -3.681,-2.062 -6.299,-3.707 -7.854,-4.934 -1.555,-1.227 -2.734,-2.581 -3.538,-4.062 -0.804,-1.481 -1.206,-3.11 -1.206,-4.887 0,-3.089 1.185,-5.749 3.554,-7.981 2.369,-2.232 5.384,-3.348 9.044,-3.348 2.285,0 4.707,0.56 7.267,1.682 1.185,0.529 2.02,0.793 2.507,0.793 0.55,0 1,-0.164 1.349,-0.492 0.349,-0.328 0.629,-0.989 0.841,-1.983 0,0 1.174,0 1.174,0 0,0 0,14.883 0,14.883 0,0 -1.174,0 -1.174,0 -0.381,-2.856 -1.063,-5.13 -2.047,-6.823 -0.984,-1.692 -2.385,-3.035 -4.205,-4.03 -1.819,-0.994 -3.702,-1.492 -5.648,-1.492 -2.201,0 -4.02,0.672 -5.458,2.016 -1.439,1.343 -2.158,2.871 -2.158,4.585 0,1.312 0.454,2.507 1.364,3.586 1.312,1.587 4.432,3.702 9.362,6.347 4.019,2.158 6.764,3.813 8.235,4.966 1.47,1.153 2.602,2.513 3.395,4.078 0.794,1.566 1.19,3.205 1.19,4.919 0,3.258 -1.264,6.066 -3.792,8.425 -2.528,2.359 -5.781,3.538 -9.758,3.538 z m -70.913,-41.19 c -0.465,0.677 -0.698,2.221 -0.698,4.633 0,0 0,36.272 0,36.272 0,0 -1.142,0 -1.142,0 0,0 -28.37,-34.654 -28.37,-34.654 0,0 0,26.498 0,26.498 0,2.645 0.285,4.295 0.857,4.951 0.803,0.888 2.041,1.332 3.712,1.332 0,0 1.524,0 1.524,0 0,0 0,1.175 0,1.175 0,0 -14.979,0 -14.979,0 0,0 0,-1.175 0,-1.175 0,0 1.492,0 1.492,0 1.84,0 3.141,-0.55 3.903,-1.65 0.465,-0.677 0.698,-2.221 0.698,-4.633 0,0 0,-29.925 0,-29.925 -1.248,-1.46 -2.195,-2.422 -2.84,-2.888 -0.646,-0.465 -1.592,-0.899 -2.84,-1.301 -0.614,-0.19 -1.545,-0.285 -2.793,-0.285 0,0 0,-1.175 0,-1.175 0,0 11.678,0 11.678,0 0,0 26.308,32.274 26.308,32.274 0,0 0,-24.816 0,-24.816 0,-2.644 -0.297,-4.295 -0.889,-4.951 -0.783,-0.888 -2.02,-1.332 -3.713,-1.332 0,0 -1.491,0 -1.491,0 0,0 0,-1.175 0,-1.175 0,0 14.978,0 14.978,0 0,0 0,1.175 0,1.175 0,0 -1.523,0 -1.523,0 -1.82,0 -3.11,0.55 -3.872,1.65 z M 46.618,264.205 c 0,0 1.524,0 1.524,0 1.777,0 3.067,-0.518 3.871,-1.555 0.508,-0.676 0.762,-2.305 0.762,-4.887 0,0 0,-27.798 0,-27.798 0,-2.179 -0.138,-3.618 -0.413,-4.316 -0.211,-0.529 -0.645,-0.984 -1.301,-1.365 -0.931,-0.508 -1.904,-0.761 -2.919,-0.761 0,0 -1.524,0 -1.524,0 0,0 0,-1.175 0,-1.175 0,0 18.438,0 18.438,0 0,0 0,1.175 0,1.175 0,0 -1.555,0 -1.555,0 -1.756,0 -3.036,0.518 -3.84,1.555 -0.529,0.677 -0.793,2.306 -0.793,4.887 0,0 0,27.798 0,27.798 0,2.18 0.137,3.618 0.412,4.316 0.211,0.529 0.656,0.984 1.333,1.365 0.909,0.508 1.872,0.761 2.888,0.761 0,0 1.555,0 1.555,0 0,0 0,1.175 0,1.175 0,0 -18.438,0 -18.438,0 0,0 0,-1.175 0,-1.175 z"
     id="path14"
     style="fill:#ffffff;fill-rule:evenodd" />
</svg>
