<?xml version="1.0" encoding="utf-8"?> 
<!-- Generated by Layerhero SVG Exporter: http://www.layerhero.com/photoshop-svg-exporter -->
<!DOCTYPE svg PUBLIC "-//W3C//DTD SVG 1.1//EN" "http://www.w3.org/Graphics/SVG/1.1/DTD/svg11.dtd">
<svg version="1.1" baseProfile="full" xmlns="http://www.w3.org/2000/svg" xmlns:xlink="http://www.w3.org/1999/xlink" xmlns:ev="http://www.w3.org/2001/xml-events" width="42" height="30" viewBox="0 0 42 30">
<g transform="scale(NaN)" ><path fill-rule="evenodd"  fill="rgb( 255, 255, 255 )"
 d="M-0.000,30.000 C-0.000,30.000 -0.000,24.000 -0.000,24.000 C-0.000,24.000 42.000,24.000 42.000,24.000 C42.000,24.000 42.000,30.000 42.000,30.000 C42.000,30.000 -0.000,30.000 -0.000,30.000 ZM-0.000,12.000 C-0.000,12.000 42.000,12.000 42.000,12.000 C42.000,12.000 42.000,18.000 42.000,18.000 C42.000,18.000 -0.000,18.000 -0.000,18.000 C-0.000,18.000 -0.000,12.000 -0.000,12.000 ZM-0.000,-0.000 C-0.000,-0.000 42.000,-0.000 42.000,-0.000 C42.000,-0.000 42.000,6.000 42.000,6.000 C42.000,6.000 -0.000,6.000 -0.000,6.000 C-0.000,6.000 -0.000,-0.000 -0.000,-0.000 Z"/>
</g></svg>
